<svg id="logo" xmlns="http://www.w3.org/2000/svg" width="56.891" height="52" viewBox="0 0 56.891 52">
  <path id="Vector" d="M6.689,22.064l.01,0a23.074,23.074,0,0,0,3.584.6,28.755,28.755,0,0,0,5.674-.068c.824-.087,1.648-.2,2.472-.345a46.382,46.382,0,0,0,7.3-1.832c.015,0,1.408-.479,3.085-1.24a27.237,27.237,0,0,0,3.025-1.6,7,7,0,0,0,1.221-.913,4.279,4.279,0,0,0,.958-1.627c.045-.121.086-.244.123-.369a3.578,3.578,0,0,0-.236-2.791c-.541-1.208-4.079-1.165-4.079-1.165C25.81,10.634,26.2,8.386,26.2,8.386a13.846,13.846,0,0,1,4.974-5.12,2.466,2.466,0,0,1,1.729-.523,1.38,1.38,0,0,1,.732.607l.85-1.311a1.121,1.121,0,0,0-.055-1.31s0,0-.006-.006A1.878,1.878,0,0,0,33.215.009a1.176,1.176,0,0,0-.55.06c-1.387.416-4.024,2.969-4.024,2.969-5.106,5.439-3.136,8.686-3.136,8.686,1.11,2.109,4.829,1.721,4.829,1.721,2.066.074,2.734.515,2.949.8l0,0a1,1,0,0,1,.1.207v0c0,.015,0,.024,0,.031V14.5c-.015.013-.031.026-.045.04l-.016.011a35.107,35.107,0,0,1-6.376,3.032,45.418,45.418,0,0,1-9.853,2.36c-.163.021-.329.04-.492.058-1,.112-1.993.18-2.988.2-.916.016-1.834-.011-2.76-.086A35.654,35.654,0,0,1,.441,17.679c-.227-.091-.353-.1-.413-.028s0,.2.019.225l.008.013,6.629,4.173Z" transform="translate(0 6.101)" fill="#173039"/>
  <path id="Vector-2" data-name="Vector" d="M31.946,4.937s-.327.118-.889,1.225a6.506,6.506,0,0,1-2,2.475S27.132,9.73,25.789,8.4a1.843,1.843,0,0,1-.317-1.8s.188-.592-.385-.316c0,0-.774.406-1.575.806a25.342,25.342,0,0,1-2.719,1.1A6.441,6.441,0,0,0,19.6,6.118c-2.948-3.153-4.9,1.175-4.9,1.175-.845,2.3.321,3.38.793,3.705a5.931,5.931,0,0,0,4.082.055c.178-.047.372-.112.573-.18a5.439,5.439,0,0,1,.293,1.064c-.084.1-.167.193-.249.287a20.744,20.744,0,0,1-5.259,4.511c-5.3,3.361-7.78.908-7.78.908-1.463-1.266-1.324-4.1-1.052-5.905a9.454,9.454,0,0,0,.9-.74s4.262-4.053,5.617-5.331c0,0,3.336-3.155,5.97-3.284a4.462,4.462,0,0,1,4.275,2.007s.678-1.876.338-2.4C21.012-1.36,16.674.532,16.674.532c-2.425.834-6.2,4.639-6.2,4.639-1.225,1.3-4.293,3.971-4.293,3.971S3.8,11.166,2.31,10.67c0,0-2.789-.261-1.46-4.536a10.066,10.066,0,0,1,.808-1.85c.28-.439.165-.473,0-.416a.8.8,0,0,0-.408.342A8.766,8.766,0,0,0,.009,8.961a4.463,4.463,0,0,0,2.444,3.794,3.5,3.5,0,0,0,3.064-.63c-1.233,4.458.384,6.909.384,6.909,1.962,3.035,5.721,1.743,5.721,1.743A19.47,19.47,0,0,0,18.8,16a8.99,8.99,0,0,0,1.654-1.876,4.291,4.291,0,0,0,.8-2.15,7.287,7.287,0,0,0,.089-1.53,27.881,27.881,0,0,0,3.071-1.412s.118-.079.079.188a2.477,2.477,0,0,0,2.046,2.561,3.158,3.158,0,0,0,3.113-1.394s.636-.976.921-1.522a3.021,3.021,0,0,0,2.37,1.976c2.927.494,3.223-2.985,3.223-2.985a4.831,4.831,0,0,0-.989-3.835l-.592,2.708a10.121,10.121,0,0,1,.84,1.127s-.633.5-2.4.1a2.624,2.624,0,0,1-1.081-.688s-.481-.468,0-1.436C31.937,5.837,32.411,4.64,31.946,4.937ZM15.982,7.8s1.263-1.119,2.881.882c-.193.031-.385.057-.575.071C18.291,8.755,15.139,9.045,15.982,7.8Z" transform="translate(17.317 24.846)" fill="#173039"/>
  <path id="Vector-3" data-name="Vector" d="M1.609,0,0,1.609,1.429,3.037,0,4.466,1.429,5.9,0,7.325,1.609,8.934,3.218,7.325,1.789,5.9,3.218,4.466,1.789,3.037,3.218,1.609Z" transform="translate(44.414 20.445)" fill="#173039"/>
  <path id="Vector-4" data-name="Vector" d="M6.751,7.47C5.919,8.205,2.108,10.9.284,12.182c-.6.418-.07.206-.07.206l3.116-1.645a20.082,20.082,0,0,0,6.946-5.886,6.142,6.142,0,0,0,.421-.584,2.759,2.759,0,0,1,.9.966c.57-1.044.356-1.255.356-1.255a3.955,3.955,0,0,0-.737-.7A6.631,6.631,0,0,0,11.7,1.547c-.142-2.159-1.5-1.428-1.5-1.428A2.664,2.664,0,0,0,8.676,2.14c.142.871,1.389,1.706,1.389,1.706l.181.113A25.869,25.869,0,0,1,6.751,7.47Zm3.812-4.7c-1.424-1.08-1.14-1.324-1.14-1.324,1.674-1.324,1.424,1.5,1.424,1.5l-.015.036C10.675,2.852,10.563,2.768,10.563,2.768Z" transform="translate(35.54 11.364)" fill="#173039"/>
  <path id="Vector-5" data-name="Vector" d="M1.861.1S.461,2.643.139,3.469c0,0-.754,2.261,1.256,2.441A2.374,2.374,0,0,0,3.727,3.4s.1-1.13-1.832-2.151l0,0S2.578-.408,1.861.1Zm1.4,3.7A1.867,1.867,0,0,1,.891,4.4s-.5-.287.359-1.975l.162-.3-.055.154S3.009,3.254,3.26,3.791Z" transform="translate(27.168 34.464)" fill="#173039"/>
  <path id="Vector-6" data-name="Vector" d="M1.861.095S.461,2.643.139,3.468c0,0-.754,2.261,1.256,2.441A2.374,2.374,0,0,0,3.727,3.4s.1-1.13-1.832-2.151l0,0S2.578-.407,1.861.095Zm1.4,3.7A1.867,1.867,0,0,1,.893,4.4s-.5-.287.359-1.975l.162-.3-.055.154S3.009,3.255,3.261,3.792Z" transform="translate(13.697 17.439)" fill="#173039"/>
  <path id="Vector-7" data-name="Vector" d="M3.972,10.6C6.671,3.276.078,0,.078,0L0,1.928C5.475,5.63,3.663,10.3,3.663,10.3,3.471,11.143,3.972,10.6,3.972,10.6Z" transform="translate(17.843 12.064)" fill="#173039"/>
  <path id="Vector-8" data-name="Vector" d="M6.878.314C5.189-1.13,4.437,2.876,4.437,2.876c-.142,1.1-.406,3.03-.406,3.03C2.891.842.706.8.706.8-.18.935.019,2.736.019,2.736.157,2.9,1.591,3.956,1.591,3.956c.214.121.214-.382.214-.382,1.109,1.144,1.941,4.55,1.941,4.55.672-.508.976-3.723.976-3.723C5.149-.135,7.163,2.672,7.163,2.672c.285-.3.3-1.688.3-1.688A3.005,3.005,0,0,0,6.878.314Z" transform="translate(33.183 10.296)" fill="#173039"/>
  <path id="Vector-9" data-name="Vector" d="M0,0V20.393H.644V.644h50.7V51.356H.644V32.707H0V52H51.988V0Z" transform="translate(4.904 0)" fill="#173039"/>
</svg>
